<!-- icon666.com - MILLIONS vector ICONS FREE --><svg clip-rule="evenodd" fill-rule="evenodd" image-rendering="optimizeQuality" shape-rendering="geometricPrecision" text-rendering="geometricPrecision" viewBox="0 0 512 512" xmlns="http://www.w3.org/2000/svg" xmlns:xodm="http://www.corel.com/coreldraw/odm/2003"><g id="Layer_x0020_1"><path d="m50.01 512c-1.6 0-3.12-.64-4.25-1.76-1.12-1.13-1.75-2.65-1.75-4.24v-375.64c0-3.31 2.68-6 6-6h272.64c3.31 0 6 2.69 6 6v167.66c-22.53 15.63-102.76 59.06-102.76 80.75v127.23c0 2.1.36 4.12 1.02 6zm119.37-260.15h-71.95c-3.31 0-6-2.68-6-5.99v-71.95c0-3.31 2.69-6 6-6h71.95c3.31 0 6 2.69 6 6v71.95c0 3.31-2.69 5.99-6 5.99zm-65.95-11.99h59.95v-59.95h-59.95zm65.95 120.29h-71.95c-3.31 0-6-2.68-6-6v-71.94c0-3.32 2.69-6 6-6h71.95c3.31 0 6 2.68 6 6v71.94c0 3.32-2.69 6-6 6zm-65.95-12h59.95v-59.94h-59.95zm65.95 120.3h-71.95c-3.31 0-6-2.69-6-6v-71.94c0-3.32 2.69-6 6-6l71.95-.01c3.31 0 6 2.69 6 6v71.95c0 3.32-2.69 6-6 6zm-65.95-12h59.95v-59.94l-59.95-.01zm178.55-204.6h-71.94c-3.31 0-6-2.68-6-5.99v-71.95c0-3.31 2.69-6 6-6h71.94c3.32 0 6 2.69 6 6v71.95c0 3.31-2.68 5.99-6 5.99zm-65.94-11.99h59.94v-59.95h-59.94z" fill="#f4a996" stroke="#f4a996" stroke-miterlimit="2.613" stroke-width=".9"></path><path d="m60.53 112.36 118.95-110.75c2.27-2.11 5.77-2.15 8.09-.08l123.95 110.83z" fill="#f4a996"></path><g id="_1403849704768" fill="#368498"><path d="m462 512h-71.25v-87.8c0-3.31-2.69-6-6-6h-63.62c-3.31 0-6 2.69-6 6v87.8h-71.25c-3.31 0-6-2.69-6-6v-127.23c0-3.32 2.69-6 6-6h218.12c3.31 0 6 2.68 6 6v127.23c0 3.31-2.69 6-6 6zm-83.25 0h-51.62v-81.8h51.62z"></path><path d="m259.29 360.77 91.72-63.67c2.08-1.45 4.85-1.43 6.91.04l89.18 63.63z"></path></g></g></svg>